<svg xmlns="http://www.w3.org/2000/svg" width="22" height="20" viewBox="0 0 22 20">
    <g fill="#E8E8E8" fill-rule="evenodd">
        <path d="M11.048 8.336c.197-.376.382-.694.554-.952.171-.258.38-.509.626-.754a2.39 2.39 0 0 1 .847-.554 2.947 2.947 0 0 1 1.069-.183h3.141V8.25c0 .106.039.198.117.276.078.077.17.117.276.117a.38.38 0 0 0 .282-.111l3.93-3.928A.387.387 0 0 0 22 4.32a.387.387 0 0 0-.11-.283L17.973.122A.457.457 0 0 0 17.678 0a.379.379 0 0 0-.393.393v2.356h-3.141c-.558 0-1.082.068-1.572.203a6.014 6.014 0 0 0-1.31.516c-.379.208-.747.489-1.102.84a9.66 9.66 0 0 0-.91 1.02c-.249.327-.51.736-.786 1.227-.274.49-.495.92-.662 1.29-.168.368-.37.822-.608 1.362a31.84 31.84 0 0 1-.958 2.099c-.196.377-.38.694-.552.951-.172.259-.38.51-.626.756-.245.245-.528.43-.847.552a2.945 2.945 0 0 1-1.068.185H.393a.379.379 0 0 0-.393.393V16.5c0 .114.036.208.111.283.073.072.167.11.283.11h2.75c.555 0 1.079-.069 1.57-.203a6.152 6.152 0 0 0 1.308-.516c.38-.209.748-.49 1.105-.841a9.88 9.88 0 0 0 .909-1.019c.248-.328.511-.737.786-1.227.274-.492.495-.921.662-1.29.168-.368.37-.822.607-1.362.378-.893.697-1.592.957-2.1z"/>
        <path d="M.392 5.892h2.75a2.882 2.882 0 0 1 1.774.608c.21.168.417.399.628.694.207.294.372.554.496.78.123.225.275.52.454.89.63-1.482 1.191-2.599 1.682-3.352C6.866 3.67 5.188 2.75 3.142 2.75H.392a.385.385 0 0 0-.282.11.387.387 0 0 0-.11.282V5.5c0 .114.037.209.11.281a.386.386 0 0 0 .282.111M17.622 12.914a.609.609 0 0 0-.32-.096.504.504 0 0 0-.306.086.262.262 0 0 0-.121.223v1.862h-3.416c-.393 0-.754-.047-1.088-.14a3.635 3.635 0 0 1-.841-.34 3.276 3.276 0 0 1-.68-.548 6.362 6.362 0 0 1-.541-.616 17.281 17.281 0 0 1-.494-.703C9.13 13.805 8.526 14.688 8 15.29c.24.252.49.477.747.673.259.198.504.371.735.519.232.15.492.279.788.388.293.11.55.203.773.277.224.074.504.133.84.18.338.044.624.078.855.1.23.024.547.04.948.049.4.01.724.013.973.01a176.89 176.89 0 0 1 2.216-.015v1.862c0 .083.043.156.127.218.085.06.185.092.3.092.125 0 .227-.03.307-.087l4.271-3.103a.267.267 0 0 0 0-.445l-4.258-3.093z"/>
    </g>
</svg>
