<svg xmlns="http://www.w3.org/2000/svg" width="11" height="22" viewBox="0 0 11 22">
    <path fill="#E8E8E8" fill-rule="evenodd" d="M5.142 13.225c.51.217.996.471 1.426.826.846.7.684 1.836-.307 2.285-.28.128-.574.168-.873.186a6.415 6.415 0 0 1-3.278-.672c-.519-.259-.689-.177-.865.382-.183.59-.337 1.191-.508 1.786-.115.4.026.663.39.83.667.305 1.35.524 2.07.642.938.15.938.154.942 1.132.004 1.376.004 1.376 1.337 1.376.193 0 .386.005.58 0 .621-.018.727-.132.743-.781.01-.292 0-.582.005-.878.005-.863.01-.849.808-1.15 1.928-.726 3.122-2.089 3.248-4.27.115-1.931-.859-3.236-2.39-4.185-.941-.586-1.986-.932-2.985-1.39-.39-.177-.762-.382-1.087-.664-.96-.823-.785-2.19.355-2.708.61-.277 1.254-.345 1.917-.259 1.02.132 1.998.41 2.92.905.538.29.696.213.88-.39.158-.524.299-1.051.438-1.578.19-.709.12-.877-.534-1.208-.834-.418-1.723-.632-2.631-.782-.71-.118-.733-.15-.741-.913-.004-.345-.004-.696-.008-1.04-.005-.437-.206-.692-.642-.7-.49-.01-.985-.01-1.476.004-.403.01-.61.236-.61.659 0 .472-.022.95-.004 1.423.021.48-.18.726-.627.853a4.95 4.95 0 0 0-2.583 1.718c-1.876 2.363-1.162 5.82 1.495 7.342.834.478 1.72.841 2.595 1.219z"/>
</svg>
