<?xml version="1.0" encoding="UTF-8"?>
<svg width="83px" height="99px" viewBox="0 0 83 99" version="1.1" xmlns="http://www.w3.org/2000/svg" xmlns:xlink="http://www.w3.org/1999/xlink">
    <!-- Generator: Sketch 54 (76480) - https://sketchapp.com -->
    <title>Group</title>
    <desc>Created with Sketch.</desc>
    <defs>
        <polygon id="path-1" points="0.720424805 0.219775391 14.1427881 0.219775391 14.1427881 13.6424609 0.720424805 13.6424609"></polygon>
    </defs>
    <g id="Page-1" stroke="none" stroke-width="1" fill="none" fill-rule="evenodd">
        <g id="Artboard" transform="translate(-206.000000, -125.000000)">
            <g id="Group" transform="translate(205.235328, 124.209000)">
                <g id="Group-3" transform="translate(34.764672, 0.791000)">
                    <mask id="mask-2" fill="white">
                        <use xlink:href="#path-1"></use>
                    </mask>
                    <g id="Clip-2"></g>
                    <path d="M7.43160645,3.37024414 C9.39581543,3.37024414 10.9926416,4.96707031 10.9926416,6.9312793 C10.9926416,8.89387695 9.39581543,10.4923145 7.43160645,10.4923145 C5.46739746,10.4923145 3.87057129,8.89387695 3.87057129,6.9312793 C3.87057129,4.96707031 5.46739746,3.37024414 7.43160645,3.37024414 M7.43160645,13.6424609 C11.1328271,13.6424609 14.1427881,10.6325 14.1427881,6.9312793 C14.1427881,3.23005859 11.1328271,0.218486328 7.43160645,0.218486328 C3.73038574,0.218486328 0.720424805,3.23005859 0.720424805,6.9312793 C0.720424805,10.6325 3.73038574,13.6424609 7.43160645,13.6424609" id="Fill-1" fill="#31B700" mask="url(#mask-2)"></path>
                </g>
                <path d="M42.2646719,96.7399796 C40.3622709,96.7399796 38.8156923,95.1918403 38.8156923,93.291 C38.8156923,91.388599 40.3622709,89.8420204 42.2646719,89.8420204 C44.1670728,89.8420204 45.7136515,91.388599 45.7136515,93.291 C45.7136515,95.1918403 44.1670728,96.7399796 42.2646719,96.7399796 M42.2646719,86.791 C38.679918,86.791 35.7646719,89.7062461 35.7646719,93.291 C35.7646719,96.8757539 38.679918,99.791 42.2646719,99.791 C45.8494258,99.791 48.7646719,96.8757539 48.7646719,93.291 C48.7646719,89.7062461 45.8494258,86.791 42.2646719,86.791" id="Fill-4" fill="#31B700"></path>
                <path d="M58.7646719,50.2225185 L53.2533407,43.2627213 C52.4110459,42.2013483 51.6209987,43.2627213 51.6209987,43.2627213 L33.6335717,66.6613129 L27.98608,73.5836499 L27.9559981,73.6164276 C27.4683537,74.1970611 26.7273876,74.5607374 25.904092,74.5513723 C24.4554082,74.5342031 23.294878,73.3604494 23.3122939,71.9322784 C23.3186269,71.3157456 23.5466165,70.7507206 23.9170995,70.3121238 L23.9471815,70.2840286 L29.7134177,63.3039405 C29.7134177,63.3039405 30.6206262,62.2316416 29.7134177,61.0922265 L24.1577552,54.1027733 L7.76467187,74.7246259 L16.3301133,85.791 L30.8280334,85.791 L39.7956231,74.6309753 L58.7646719,50.2225185 Z" id="Fill-6" fill="#31B700"></path>
                <path d="M30.056007,37.8392341 L23.9094003,29.6163497 L23.8809291,29.5881408 C23.510804,29.1446348 23.2893617,28.5773231 23.2846165,27.9582952 C23.2735444,26.5227774 24.4376984,25.3521095 25.8849823,25.3411393 C26.7090641,25.3348707 27.4461508,25.7047203 27.9317422,26.2892707 L27.9602134,26.322181 L33.442493,33.6674563 L39.7646719,25.5965863 L32.7528583,16.3048993 L32.6611179,16.1810937 C31.2644494,14.5152035 29.2176895,13.7002807 27.1899104,13.7990117 L17.7042695,13.8538623 C16.8564617,13.8601309 16.1067212,14.2660251 15.6322019,14.8881874 L15.5942404,14.9289335 L7.76467187,25.0794238 L23.9631791,45.791 L30.056007,37.8392341 Z" id="Fill-8" fill="#31B700"></path>
                <path d="M55.2946582,61.9459808 L61.7912396,70.1591778 L61.8209329,70.1890726 C62.1866293,70.6312006 62.4101104,71.1992014 62.4179245,71.8206981 C62.4351153,73.2619411 61.2895791,74.4435715 59.8596123,74.4624525 C59.0453908,74.4718929 58.3155607,74.1052885 57.8326539,73.5199802 L57.8045234,73.4869386 L52.0721538,65.9739088 L45.7646719,73.9825626 L54.9961624,85.791 L69.3177096,85.791 L77.7646719,74.6355275 L61.4708645,53.791 L55.2946582,61.9459808 Z" id="Fill-10" fill="#31B700"></path>
                <path d="M32.6600703,57.4012676 C32.6600703,57.4012676 33.1782605,58.2781655 33.8476552,57.4012676 L52.1953698,33.3912692 L57.7789091,26.3808094 L57.8088349,26.3461743 C58.2907991,25.7589519 59.0263457,25.388986 59.8453698,25.393709 C61.2881123,25.4047292 62.4473464,26.5823227 62.436321,28.0228282 C62.4315959,28.6446857 62.2095144,29.2145906 61.8425286,29.660124 L61.8141777,29.6884618 L55.873103,37.0106376 C54.9942272,38.095346 55.873103,38.9328858 55.873103,38.9328858 L61.518069,46.0110415 L77.7646719,25.291378 L70.0926212,14.935482 L70.0563952,14.8945496 C69.5838813,14.2679691 68.8357343,13.8617938 67.9915094,13.8554965 L67.9285076,13.8507735 L58.5475317,13.7988209 C56.5283223,13.7012129 54.4886373,14.5182864 53.0994464,16.1917917 L26.7646719,49.9767609 L32.6600703,57.4012676 Z" id="Fill-12" fill="#31B700"></path>
                <path d="M7.26467187,53.7399796 C5.36227091,53.7399796 3.81569228,52.1918403 3.81569228,50.291 C3.81569228,48.388599 5.36227091,46.8420204 7.26467187,46.8420204 C9.16707284,46.8420204 10.7136515,48.388599 10.7136515,50.291 C10.7136515,52.1918403 9.16707284,53.7399796 7.26467187,53.7399796 M13.7646719,50.291 C13.7646719,46.7062461 10.8494258,43.791 7.26467187,43.791 C3.67991797,43.791 0.764671875,46.7062461 0.764671875,50.291 C0.764671875,53.8757539 3.67991797,56.791 7.26467187,56.791 C10.8494258,56.791 13.7646719,53.8757539 13.7646719,50.291" id="Fill-14" fill="#31B700"></path>
                <path d="M77.2646719,53.7399796 C75.3622709,53.7399796 73.8156923,52.193401 73.8156923,50.291 C73.8156923,48.388599 75.3622709,46.8420204 77.2646719,46.8420204 C79.1655122,46.8420204 80.7120908,48.388599 80.7120908,50.291 C80.7120908,52.193401 79.1655122,53.7399796 77.2646719,53.7399796 M77.2646719,43.791 C73.679918,43.791 70.7646719,46.7062461 70.7646719,50.291 C70.7646719,53.8757539 73.679918,56.791 77.2646719,56.791 C80.8478652,56.791 83.7646719,53.8757539 83.7646719,50.291 C83.7646719,46.7062461 80.8478652,43.791 77.2646719,43.791" id="Fill-16" fill="#31B700"></path>
            </g>
        </g>
    </g>
</svg>