<svg xmlns="http://www.w3.org/2000/svg" width="5" height="14" viewBox="0 0 5 14">
    <g fill="#F2AF19" fill-rule="evenodd">
        <path d="M3.481 10.5H.936a.608.608 0 0 0-.447.189.606.606 0 0 0-.19.447v2.228c0 .172.063.32.19.447A.608.608 0 0 0 .936 14H3.48c.172 0 .321-.063.448-.19a.615.615 0 0 0 .188-.446v-2.228a.61.61 0 0 0-.189-.447.612.612 0 0 0-.447-.19M4.241.189A.592.592 0 0 0 3.8 0H.618a.594.594 0 0 0-.443.189A.585.585 0 0 0 0 .636l.28 7.637a.64.64 0 0 0 .202.447c.13.126.281.189.454.189h2.546a.628.628 0 0 0 .451-.19.642.642 0 0 0 .204-.446L4.415.636a.584.584 0 0 0-.174-.447"/>
    </g>
</svg>
