<svg xmlns="http://www.w3.org/2000/svg" width="20" height="14" viewBox="0 0 20 14">
    <g fill="#E8E8E8" fill-rule="evenodd">
        <path d="M20 .952C20 .404 19.548 0 19 0H1C.451 0 0 .388 0 .952v1.79h20V.952zM1.612 10.274c0-.532.42-.919.936-.919H7.13c.515 0 .935.387.935.92v.322c0 .532-.435 1.016-.935 1.016H2.55c-.517 0-.937-.484-.937-1.016v-.323zm15.646-.968c.628 0 1.128.5 1.128 1.13 0 .63-.5 1.13-1.128 1.13-.629 0-1.129-.5-1.129-1.13 0-.63.5-1.13 1.13-1.13zM1 13.226h18c.548 0 1-.388 1-.952V5H0v7.274c0 .564.451.952 1 .952z"/>
    </g>
</svg>
