<svg xmlns="http://www.w3.org/2000/svg" width="18" height="18" viewBox="0 0 18 18">
    <path fill="#E8E8E8" fill-rule="evenodd" d="M12.595 13.378a1.748 1.748 0 0 1-1.245.517c-.47 0-.914-.184-1.247-.517a1.749 1.749 0 0 1-.515-1.245c0-.47.182-.914.515-1.247a1.75 1.75 0 0 1 1.247-.515c.47 0 .913.182 1.246.515.332.333.516.776.516 1.247 0 .47-.184.912-.517 1.245zm-7.61.783a.808.808 0 0 1-1.146 0 .809.809 0 0 1 0-1.146l9.176-9.177a.81.81 0 1 1 1.146 1.147L4.986 14.16zm.81-9.926a1.755 1.755 0 0 1 1.247-.515c.472 0 .914.183 1.247.515.332.333.516.776.516 1.247 0 .47-.184.912-.517 1.245a1.747 1.747 0 0 1-1.246.517c-.47 0-.913-.184-1.246-.517a1.753 1.753 0 0 1-.516-1.245c0-.471.184-.914.516-1.247zm9.572-1.602c-3.51-3.51-9.223-3.51-12.734 0-3.51 3.51-3.51 9.223 0 12.734A8.975 8.975 0 0 0 9.001 18a8.975 8.975 0 0 0 6.366-2.633c3.51-3.51 3.51-9.224 0-12.734z"/>
</svg>
