<svg xmlns="http://www.w3.org/2000/svg" width="14" height="12" viewBox="0 0 14 12">
    <path fill="#939292" fill-rule="evenodd" d="M1.197 7.154l-.02-.004h8.7L7.14 9.89a.716.716 0 0 0 0 1.01l.426.426a.704.704 0 0 0 .502.207c.19 0 .368-.073.503-.207l4.688-4.687a.707.707 0 0 0 .207-.504.707.707 0 0 0-.207-.504L8.572.943A.708.708 0 0 0 8.07.736a.704.704 0 0 0-.502.207l-.426.426a.706.706 0 0 0-.207.502c0 .19.074.359.207.493L9.907 5.12h-8.72a.737.737 0 0 0-.72.729v.602c0 .392.338.703.73.703"/>
</svg>
