<svg xmlns="http://www.w3.org/2000/svg" width="20" height="20" viewBox="0 0 20 20">
    <path fill="#FFF" fill-rule="nonzero" d="M16.066 12.773a1.164 1.164 0 0 0-1.644 0l-.806-.806c2.15-2.943 1.896-7.105-.76-9.76A7.48 7.48 0 0 0 7.53 0a7.474 7.474 0 0 0-5.324 2.206A7.472 7.472 0 0 0 0 7.53c0 2.011.783 3.902 2.206 5.325a7.475 7.475 0 0 0 5.324 2.207 7.473 7.473 0 0 0 4.438-1.447l.805.805a1.162 1.162 0 0 0 0 1.645l2.964 2.965a1.241 1.241 0 0 0 1.756 0l1.538-1.537a1.241 1.241 0 0 0 0-1.756l-2.965-2.964zM7.53 12.73a5.17 5.17 0 0 1-3.677-1.524A5.167 5.167 0 0 1 2.33 7.53a5.17 5.17 0 0 1 1.523-3.678A5.17 5.17 0 0 1 7.53 2.33a5.17 5.17 0 0 1 3.677 1.523 5.208 5.208 0 0 1 0 7.355 5.169 5.169 0 0 1-3.677 1.524z"/>
</svg>
