<svg xmlns="http://www.w3.org/2000/svg" width="17" height="22" viewBox="0 0 17 22">
    <path fill="#FFF" fill-rule="nonzero" d="M1.206 8.67h.43V6.713C1.637 3.09 4.599.066 8.299 0h.404c3.7.065 6.661 3.09 6.661 6.712V8.67h.431c.664 0 1.206.666 1.206 1.487v9.82c0 .822-.542 1.493-1.206 1.493H1.206C.542 21.47 0 20.799 0 19.978v-9.82C0 9.335.542 8.67 1.206 8.67zm5.927 6.388v2.967c0 .34.293.627.644.627h1.446c.35 0 .644-.287.644-.627v-2.967a1.74 1.74 0 0 0 .537-1.27c0-.942-.75-1.75-1.702-1.788a6.86 6.86 0 0 0-.404 0c-.953.038-1.702.846-1.702 1.787 0 .497.198.946.537 1.27zM4.477 8.67h8.045V6.713c0-2.158-1.806-3.941-4.022-3.941s-4.023 1.783-4.023 3.94V8.67z"/>
</svg>
