<svg xmlns="http://www.w3.org/2000/svg" width="20" height="20" viewBox="0 0 20 20">
    <path fill="#000" fill-rule="nonzero" d="M18.66 4.98a9.958 9.958 0 0 0-3.64-3.639C13.488.447 11.815 0 10 0 8.186 0 6.513.447 4.98 1.341a9.955 9.955 0 0 0-3.639 3.64C.447 6.512 0 8.185 0 10s.447 3.487 1.341 5.02a9.958 9.958 0 0 0 3.64 3.639C6.513 19.553 8.186 20 10 20c1.813 0 3.487-.447 5.019-1.341a9.955 9.955 0 0 0 3.639-3.64C19.553 13.488 20 11.815 20 10s-.447-3.488-1.34-5.02zm-3.946 7.377c.165.164.247.36.247.586a.815.815 0 0 1-.247.598l-1.172 1.173a.816.816 0 0 1-.6.247.8.8 0 0 1-.585-.247L10 12.357l-2.357 2.357a.801.801 0 0 1-.586.247.816.816 0 0 1-.599-.247L5.286 13.54a.815.815 0 0 1-.247-.598c0-.226.083-.422.247-.586L7.643 10 5.286 7.643a.8.8 0 0 1-.247-.586c0-.234.083-.434.247-.599l1.172-1.172a.816.816 0 0 1 .6-.247c.225 0 .42.083.585.247L10 7.643l2.357-2.357a.8.8 0 0 1 .586-.247c.234 0 .434.083.599.247l1.172 1.172a.816.816 0 0 1 .247.6.8.8 0 0 1-.247.585L12.357 10l2.357 2.357z"/>
</svg>
