<svg xmlns="http://www.w3.org/2000/svg" width="31" height="32" viewBox="0 0 31 32">
    <g fill="none" fill-rule="nonzero">
        <path fill="#000" d="M10.07 18.836h-.093.092z"/>
        <path fill="#FF9914" d="M11.278 18.724c-.411.053-.822.09-1.25.09.11.003.22.026.324.07a.92.92 0 0 1 .574.84v6.368h.897a.91.91 0 1 1 0 1.82H8.185a.91.91 0 1 1 0-1.82h.91v-4.171l-.267.266a.91.91 0 1 1-1.287-1.286l1.82-1.82a.913.913 0 0 1 .614-.266H3.236a7.978 7.978 0 0 0-1.42 4.548c0 1.547.438 3.039 1.293 4.349l-2.766 2.22a.908.908 0 0 0 .564 1.619h9.097a8.132 8.132 0 0 0 7.842-5.95 9.975 9.975 0 0 1-6.568-6.877zM16.19 3.338C16.065 3.276 13.942.5 10.004.5 5.5.5 1.784 4.254 1.817 8.759c.013 1.757.496 3.147 1.292 4.398l-2.766 2.22a.908.908 0 0 0 .564 1.619h9.097c4.696 0 8.187-3.933 8.187-8.309 0-2.046-.757-3.793-2.001-5.349zm-3.457 7.168c0 .73-.284 1.417-.8 1.93a2.705 2.705 0 0 1-1.929.8c-.73 0-1.416-.285-1.93-.8a2.706 2.706 0 0 1-.799-1.93.91.91 0 1 1 1.82 0 .9.9 0 0 0 .265.643.93.93 0 0 0 1.286.002.9.9 0 0 0 .268-.645.9.9 0 0 0-.266-.642.9.9 0 0 0-.644-.267.91.91 0 1 1 0-1.82.9.9 0 0 0 .642-.265.9.9 0 0 0 .268-.644.9.9 0 0 0-.266-.643.93.93 0 0 0-1.286-.001.9.9 0 0 0-.268.644.91.91 0 1 1-1.819 0c0-.73.284-1.416.8-1.93 1.026-1.03 2.83-1.031 3.86.001a2.706 2.706 0 0 1 .09 3.748c.451.5.708 1.137.708 1.82z"/>
        <path fill="#FF9914" d="M30.692 22.636l-2.147-1.62-.655-.49a8.065 8.065 0 0 0 1.347-4.44c0-4.512-3.805-8.187-8.317-8.187-.43 0-.477.006-.946.072.018.273.049.546.049.837 0 1.092-.194 2.147-.504 3.13 1.037-.619 2.475-.473 3.33.4.51.51.8 1.2.8 1.929 0 .909-.428 1.665-1.055 2.128l-1.492 1.128a2.6 2.6 0 0 0-.91 1.292h2.548c.509 0 .91.4.91.91a.9.9 0 0 1-.91.91H19.1a.9.9 0 0 1-.909-.91c0-1.42.673-2.784 1.82-3.64l1.491-1.145a.823.823 0 0 0 .328-.673.853.853 0 0 0-.273-.637c-.346-.346-.946-.346-1.274 0a.853.853 0 0 0-.273.637.9.9 0 0 1-.91.91.88.88 0 0 1-.872-.674 9.95 9.95 0 0 1-5.168 3.839 8.145 8.145 0 0 0 5.095 5.44v-.018c.851.284 1.711.51 2.765.51h9.226c.4 0 .746-.256.855-.62a.908.908 0 0 0-.309-1.018z"/>
    </g>
</svg>
