<?xml version="1.0" encoding="UTF-8" standalone="no"?>
<svg
   xmlns:dc="http://purl.org/dc/elements/1.1/"
   xmlns:cc="http://creativecommons.org/ns#"
   xmlns:rdf="http://www.w3.org/1999/02/22-rdf-syntax-ns#"
   xmlns:svg="http://www.w3.org/2000/svg"
   xmlns="http://www.w3.org/2000/svg"
   xmlns:sodipodi="http://sodipodi.sourceforge.net/DTD/sodipodi-0.dtd"
   xmlns:inkscape="http://www.inkscape.org/namespaces/inkscape"
   width="111"
   height="110"
   viewBox="0 0 111 110"
   version="1.1"
   id="svg10"
   sodipodi:docname="declarations_2.svg"
   inkscape:version="0.92.3 (2405546, 2018-03-11)">
  <metadata
     id="metadata16">
    <rdf:RDF>
      <cc:Work
         rdf:about="">
        <dc:format>image/svg+xml</dc:format>
        <dc:type
           rdf:resource="http://purl.org/dc/dcmitype/StillImage" />
      </cc:Work>
    </rdf:RDF>
  </metadata>
  <defs
     id="defs14" />
  <sodipodi:namedview
     pagecolor="#ffffff"
     bordercolor="#666666"
     borderopacity="1"
     objecttolerance="10"
     gridtolerance="10"
     guidetolerance="10"
     inkscape:pageopacity="0"
     inkscape:pageshadow="2"
     inkscape:window-width="1920"
     inkscape:window-height="982"
     id="namedview12"
     showgrid="false"
     inkscape:zoom="3.0341309"
     inkscape:cx="-9.390923"
     inkscape:cy="70.426537"
     inkscape:window-x="0"
     inkscape:window-y="27"
     inkscape:window-maximized="1"
     inkscape:current-layer="svg10" />
  <path
     style="fill:#ffffff;fill-rule:nonzero"
     inkscape:connector-curvature="0"
     id="path2"
     d="m 35.93,64.855 c -0.064,-0.002 -0.128,0 -0.193,10e-4 h 0.105 z" />
  <path
     style="fill:#ffffff;fill-rule:nonzero"
     inkscape:connector-curvature="0"
     id="path4"
     d="m 40.405,64.536 c -1.47,0.188 -2.943,0.314 -4.475,0.319 0.392,0.01 0.784,0.09 1.16,0.246 1.219,0.495 2.055,1.667 2.055,2.965 V 90.53 h 3.216 c 1.801,0 3.259,1.435 3.259,3.209 0,1.774 -1.458,3.209 -3.26,3.209 H 29.325 c -1.802,0 -3.26,-1.435 -3.26,-3.21 0,-1.773 1.458,-3.208 3.26,-3.208 h 3.259 V 75.813 l -0.955,0.94 c -1.280533,1.253787 -3.328467,1.253787 -4.609,0 -1.272746,-1.244947 -1.272746,-3.293053 0,-4.538 l 6.519,-6.418 c 0.6,-0.588 1.39,-0.914 2.2,-0.94 H 11.593 C 8.4,69.412 6.509,74.933 6.509,80.902 c -0.010467,5.458958 1.6006535,10.798034 4.629,15.34 l -9.908,7.83 c -1.108,0.835 -1.5,2.311 -1.043,3.595 0.456,1.284 1.694,2.118 3.064,2.118 h 32.591 c 13.428,0 24.64,-8.857 28.095,-20.988 C 52.529,85.202 43.534,76.024 40.405,64.535 Z"
     sodipodi:nodetypes="cccscssssssccccccccccccssccc" />
  <path
     style="fill:#ffffff;fill-rule:nonzero"
     inkscape:connector-curvature="0"
     id="path6"
     d="m 109.51,78.257 -7.65,-5.75 -2.333,-1.744 c 2.994,-4.478 4.797,-10.01 4.797,-15.763 0,-16.022 -13.556,-29.071 -29.632,-29.071 -1.531,0 -1.702,0.02 -3.371,0.258 0.065,0.969 0.173,1.938 0.173,2.972 0,3.876 -0.691,7.623 -1.794,11.111 3.695,-2.196 8.817,-1.68 11.863,1.422 a 9.663,9.663 0 0 1 2.852,6.848 c 0,3.229 -1.527,5.914 -3.76,7.558 l -5.315,4.005 c -1.556,1.163 -2.657,2.778 -3.241,4.587 h 9.075 c 1.816,0 3.241,1.421 3.241,3.23 0,1.81 -1.425,3.23 -3.24,3.23 H 68.21 c -1.816,0 -3.241,-1.42 -3.241,-3.23 0,-5.039 2.398,-9.884 6.482,-12.92 l 5.315,-4.07 c 0.757,-0.538 1.167,-1.453 1.167,-2.39 0,-0.84 -0.324,-1.68 -0.972,-2.262 -1.232,-1.227 -3.371,-1.227 -4.538,0 -0.648,0.582 -0.972,1.422 -0.972,2.262 0,1.808 -1.426,3.23 -3.241,3.23 -1.491,0 -2.788,-0.97 -3.112,-2.39 a 35.445,35.445 0 0 1 -18.41,13.63 c 2.528,8.98 9.4,16.216 18.15,19.317 v -0.065 c 3.035,1.01 6.098,1.81 9.854,1.81 h 32.873 c 1.426,0 2.657,-0.905 3.046,-2.197 a 3.216,3.216 0 0 0 -1.102,-3.618 z" />
  <path
     style="fill:#358738;fill-rule:nonzero;fill-opacity:1"
     inkscape:connector-curvature="0"
     id="path4-3"
     d="M 57.751,10.004 C 57.305,9.784 49.731,0 35.686,0 19.616,0 6.366001,13.232 6.483001,29.11 c 0.045,6.192 1.768,11.092 4.606999,15.502 -12.481999,9.9 -9.353999,7.418 -9.864999,7.823 -1.103,0.834 -1.492,2.309 -1.038,3.591 0.454,1.283 1.687,2.117 3.05,2.117 H 35.686 c 16.75,0 29.204,-13.86 29.204,-29.285 0,-7.212 -2.7,-13.37 -7.139,-18.854 z M 45.421,35.27 c 0.0057,2.560872 -1.024387,5.015226 -2.856,6.805 -1.829087,1.813878 -4.304038,2.826521 -6.88,2.815 -2.578566,0.01033 -5.055458,-1.00489 -6.885,-2.822 -1.827779,-1.788923 -2.855205,-4.240465 -2.849,-6.798 0,-1.772 1.451,-3.206 3.245,-3.206 1.793,0 3.245,1.434 3.245,3.206 0,0.858 0.336,1.663 0.947,2.264 1.23,1.221 3.372,1.215 4.589,0.006 0.612139,-0.596352 0.956354,-1.415398 0.954,-2.27 0,-0.858 -0.336,-1.662 -0.948,-2.264 -0.609787,-0.607184 -1.43648,-0.946211 -2.297,-0.942 -1.794,0 -3.245,-1.434 -3.245,-3.206 0,-1.773 1.451,-3.207 3.245,-3.207 0.868,0 1.682,-0.332 2.29,-0.936 0.612506,-0.596184 0.957092,-1.415251 0.955,-2.27 0,-0.858 -0.336,-1.663 -0.948,-2.264 -1.23,-1.221 -3.372,-1.215 -4.588,-0.006 -0.612139,0.596352 -0.956354,1.415398 -0.954,2.27 0,1.772 -1.452,3.206 -3.245,3.206 -1.794,0 -3.245,-1.434 -3.245,-3.206 -0.0057,-2.560379 1.024003,-5.014301 2.855,-6.804 3.657,-3.626 10.096,-3.633 13.766,0.006 1.827412,1.789091 2.854468,4.240611 2.848,6.798 0,2.401 -0.914,4.646 -2.528,6.412 1.613,1.761 2.528,4.009 2.528,6.413 z"
     sodipodi:nodetypes="csccccsssccccccsscccccsscccccsccccccc" />
</svg>
