<svg xmlns="http://www.w3.org/2000/svg" width="111" height="110" viewBox="0 0 111 110">
    <g fill="none" fill-rule="nonzero">
        <path fill="#000" d="M35.93 64.855c-.064-.002-.128 0-.193.001h.105l.088-.001z"/>
        <path fill="#FFF" d="M40.405 64.536c-1.47.188-2.943.314-4.475.319.392.01.784.09 1.16.246 1.219.495 2.055 1.667 2.055 2.965V90.53h3.216c1.801 0 3.259 1.435 3.259 3.209s-1.458 3.209-3.26 3.209H29.325c-1.802 0-3.26-1.435-3.26-3.21 0-1.773 1.458-3.208 3.26-3.208h3.259V75.813l-.955.94a3.294 3.294 0 0 1-4.609 0 3.174 3.174 0 0 1 0-4.538l6.519-6.418c.6-.588 1.39-.914 2.2-.94H11.593C8.4 69.412 6.509 74.933 6.509 80.902a27.557 27.557 0 0 0 4.629 15.34l-9.908 7.83c-1.108.835-1.5 2.311-1.043 3.595.456 1.284 1.694 2.118 3.064 2.118h32.591c13.428 0 24.64-8.857 28.095-20.988-11.408-3.595-20.403-12.773-23.532-24.262zM57.75 10.004C57.304 9.784 49.73 0 35.685 0 19.615 0 6.365 13.232 6.482 29.11c.045 6.192 1.768 11.092 4.607 15.502-12.482 9.9-9.354 7.418-9.865 7.823-1.103.834-1.492 2.309-1.038 3.591.454 1.283 1.687 2.117 3.05 2.117h32.449c16.75 0 29.204-13.86 29.204-29.285 0-7.212-2.7-13.37-7.139-18.854zM45.42 35.27a9.485 9.485 0 0 1-2.856 6.805 9.709 9.709 0 0 1-6.88 2.815 9.715 9.715 0 0 1-6.885-2.822 9.48 9.48 0 0 1-2.849-6.798c0-1.772 1.451-3.206 3.245-3.206 1.793 0 3.245 1.434 3.245 3.206 0 .858.336 1.663.947 2.264 1.23 1.221 3.372 1.215 4.589.006a3.157 3.157 0 0 0 .954-2.27c0-.858-.336-1.662-.948-2.264a3.233 3.233 0 0 0-2.297-.942c-1.794 0-3.245-1.434-3.245-3.206 0-1.773 1.451-3.207 3.245-3.207.868 0 1.682-.332 2.29-.936a3.157 3.157 0 0 0 .955-2.27c0-.858-.336-1.663-.948-2.264-1.23-1.221-3.372-1.215-4.588-.006a3.157 3.157 0 0 0-.954 2.27c0 1.772-1.452 3.206-3.245 3.206-1.794 0-3.245-1.434-3.245-3.206a9.485 9.485 0 0 1 2.855-6.804c3.657-3.626 10.096-3.633 13.766.006a9.48 9.48 0 0 1 2.848 6.798c0 2.401-.914 4.646-2.528 6.412 1.613 1.761 2.528 4.009 2.528 6.413z"/>
        <path fill="#FFF" d="M109.51 78.257l-7.65-5.75-2.333-1.744c2.994-4.478 4.797-10.01 4.797-15.763 0-16.022-13.556-29.071-29.632-29.071-1.531 0-1.702.02-3.371.258.065.969.173 1.938.173 2.972 0 3.876-.691 7.623-1.794 11.111 3.695-2.196 8.817-1.68 11.863 1.422a9.663 9.663 0 0 1 2.852 6.848c0 3.229-1.527 5.914-3.76 7.558l-5.315 4.005c-1.556 1.163-2.657 2.778-3.241 4.587h9.075c1.816 0 3.241 1.421 3.241 3.23 0 1.81-1.425 3.23-3.24 3.23H68.21c-1.816 0-3.241-1.42-3.241-3.23 0-5.039 2.398-9.884 6.482-12.92l5.315-4.07c.757-.538 1.167-1.453 1.167-2.39 0-.84-.324-1.68-.972-2.262-1.232-1.227-3.371-1.227-4.538 0-.648.582-.972 1.422-.972 2.262 0 1.808-1.426 3.23-3.241 3.23-1.491 0-2.788-.97-3.112-2.39a35.445 35.445 0 0 1-18.41 13.63c2.528 8.98 9.4 16.216 18.15 19.317v-.065c3.035 1.01 6.098 1.81 9.854 1.81h32.873c1.426 0 2.657-.905 3.046-2.197a3.216 3.216 0 0 0-1.102-3.618z"/>
    </g>
</svg>
