<?xml version="1.0" encoding="UTF-8"?>
<svg width="25px" height="26px" viewBox="0 0 25 26" version="1.1" xmlns="http://www.w3.org/2000/svg" xmlns:xlink="http://www.w3.org/1999/xlink">
    <!-- Generator: Sketch 54 (76480) - https://sketchapp.com -->
    <title>descargar</title>
    <desc>Created with Sketch.</desc>
    <g id="Page-1" stroke="none" stroke-width="1" fill="none" fill-rule="evenodd">
        <g id="declaraciones-previas" transform="translate(-911.000000, -347.000000)" fill="#31B700" fill-rule="nonzero">
            <g id="Group" transform="translate(911.000000, 347.000000)">
                <g id="descargar" transform="translate(0.000000, 0.500000)">
                    <path d="M12.4993405,0 C5.59610312,0 0,5.59610312 0,12.4993405 C0,19.4025779 5.59610312,24.9986811 12.4993405,24.9986811 C19.4025779,24.9986811 24.998741,19.402518 24.998741,12.4993405 C24.998741,5.59610312 19.4025779,0 12.4993405,0 Z M17.3703837,11.8420863 L13.2780576,18.9290168 C13.1173861,19.2072542 12.8205635,19.3785971 12.4992806,19.3785971 C12.1779976,19.3785971 11.8811751,19.2072542 11.7205036,18.9290168 L7.62823741,11.8420863 C7.46756595,11.5638489 7.46756595,11.2210432 7.62817746,10.9428058 C7.78884892,10.6645084 8.08567146,10.4931055 8.40701439,10.4931055 L10.4009592,10.4931055 L10.4009592,6.51936451 C10.4009592,6.02272182 10.8035971,5.62008393 11.3002398,5.62008393 L13.6983213,5.62008393 C14.195024,5.62008393 14.5976019,6.02272182 14.5976019,6.51936451 L14.5976019,10.4931055 L16.5916067,10.4931055 C16.9128897,10.4931055 17.2097722,10.6645084 17.3703837,10.9428058 C17.5310552,11.2210432 17.5310552,11.5638489 17.3703837,11.8420863 Z" id="Shape"></path>
                </g>
            </g>
        </g>
    </g>
</svg>