<?xml version="1.0" encoding="UTF-8"?>
<svg width="18px" height="18px" viewBox="0 0 18 18" version="1.1" xmlns="http://www.w3.org/2000/svg" xmlns:xlink="http://www.w3.org/1999/xlink">
    <!-- Generator: Sketch 54 (76480) - https://sketchapp.com -->
    <title>pluma</title>
    <desc>Created with Sketch.</desc>
    <g id="Page-1" stroke="none" stroke-width="1" fill="none" fill-rule="evenodd">
        <g id="1-II-Datos-curriculares" transform="translate(-1185.000000, -271.000000)" fill="#FF9914" fill-rule="nonzero">
            <g id="Group-22" transform="translate(436.000000, 196.000000)">
                <g id="Group-21" transform="translate(57.000000, 75.000000)">
                    <g id="pluma" transform="translate(692.000000, 0.000000)">
                        <path d="M0.0924868421,16.3458355 C-0.0941447368,16.7909211 0.00686842105,17.3046316 0.348157895,17.6459211 C0.689447368,17.9872105 1.20315789,18.0882237 1.64824342,17.9015329 L5.99826316,16.0775526 L1.91646711,11.9958158 L0.0924868421,16.3458355 Z" id="Path"></path>
                        <path d="M17.6459803,3.28967763 L14.7043421,0.348098684 C14.2401908,-0.116052632 13.487625,-0.116052632 13.0234145,0.348098684 L3.00629605,10.3653947 C3.00375,10.3678816 3.00161842,10.3706645 2.99913158,10.3732105 L7.62092763,14.9950066 C7.62347368,14.9925197 7.62625658,14.9903882 7.62874342,14.9879013 L17.6459803,4.97066447 C18.1101316,4.50645395 18.1101316,3.75388816 17.6459803,3.28967763 Z" id="Path"></path>
                    </g>
                </g>
            </g>
        </g>
    </g>
</svg>