<?xml version="1.0" encoding="UTF-8"?>
<svg width="14px" height="18px" viewBox="0 0 14 18" version="1.1" xmlns="http://www.w3.org/2000/svg" xmlns:xlink="http://www.w3.org/1999/xlink">
    <!-- Generator: Sketch 54 (76480) - https://sketchapp.com -->
    <title>Group</title>
    <desc>Created with Sketch.</desc>
    <g id="Page-1" stroke="none" stroke-width="1" fill="none" fill-rule="evenodd">
        <g id="1-II-Datos-curriculares" transform="translate(-1249.000000, -271.000000)" fill="#E02020" fill-rule="nonzero">
            <g id="Group-22" transform="translate(436.000000, 196.000000)">
                <g id="Group-21" transform="translate(57.000000, 75.000000)">
                    <g id="Group" transform="translate(756.000000, 0.000000)">
                        <g id="Group-2">
                            <path d="M1.02523404,16.4761277 C1.02523404,17.1551489 1.57557447,17.7066383 2.25497872,17.7066383 L11.0994894,17.7066383 C11.7792766,17.7066383 12.3284681,17.1559149 12.3284681,16.4761277 L12.3284681,6.03076596 L1.02523404,6.03076596 L1.02523404,16.4761277 Z" id="Path"></path>
                            <path d="M12.113617,1.27646809 L8.68174468,1.27646809 C8.32902128,0.507446809 7.56459574,-1.64090963e-12 6.67761702,-1.64090963e-12 C5.79025532,-1.64090963e-12 5.02621277,0.507446809 4.67310638,1.27646809 L1.24123404,1.27646809 C0.561829787,1.27646809 -7.67386155e-13,1.82144681 -7.67386155e-13,2.50123404 L-7.67386155e-13,3.74553191 C-7.67386155e-13,4.42493617 0.561829787,4.98217021 1.24123404,4.98217021 L12.113617,4.98217021 C12.7934043,4.98217021 13.3537021,4.42493617 13.3537021,3.74553191 L13.3537021,2.50123404 C13.3537021,1.82144681 12.7934043,1.27646809 12.113617,1.27646809 Z" id="Path"></path>
                        </g>
                    </g>
                </g>
            </g>
        </g>
    </g>
</svg>