<svg xmlns="http://www.w3.org/2000/svg" width="5" height="15" viewBox="0 0 5 15">
    <g fill="#FF9914" fill-rule="evenodd">
        <path d="M3.73 11H1.002a.675.675 0 0 0-.478.189.588.588 0 0 0-.204.447v2.228c0 .172.067.32.204.447a.675.675 0 0 0 .478.189H3.73a.684.684 0 0 0 .48-.19.595.595 0 0 0 .201-.446v-2.228a.59.59 0 0 0-.202-.447.679.679 0 0 0-.48-.19M4.544.689A.657.657 0 0 0 4.07.5H.662a.659.659 0 0 0-.474.189.565.565 0 0 0-.188.447l.3 7.637c.005.171.08.32.217.447.14.126.3.189.486.189H3.73a.697.697 0 0 0 .484-.19.624.624 0 0 0 .219-.446l.297-7.637a.564.564 0 0 0-.186-.447"/>
    </g>
</svg>
