<svg xmlns="http://www.w3.org/2000/svg" width="23" height="21" viewBox="0 0 23 21">
    <g fill="#FFF" fill-rule="evenodd">
        <path d="M7.668 20.927c-2.65 0-5.077-.965-6.948-2.56A2.05 2.05 0 0 1 0 16.807c0-2.693 2.18-4.848 4.874-4.848h5.595a4.842 4.842 0 0 1 4.865 4.848c0 .6-.261 1.167-.718 1.557a10.669 10.669 0 0 1-6.948 2.562M7.67 0a4.81 4.81 0 1 1 .001 9.62 4.81 4.81 0 0 1 0-9.62"/>
        <path fill-rule="nonzero" d="M16.993 10.592v1.816a1.364 1.364 0 0 0 2.728 0v-1.816h1.814a1.364 1.364 0 0 0 0-2.728H19.72v-1.79a1.363 1.363 0 0 0-2.728 0v1.79h-1.79a1.364 1.364 0 0 0 0 2.727h1.79z"/>
    </g>
</svg>
