<?xml version="1.0" encoding="UTF-8"?>
<svg width="26px" height="26px" viewBox="0 0 26 26" version="1.1" xmlns="http://www.w3.org/2000/svg" xmlns:xlink="http://www.w3.org/1999/xlink">
    <!-- Generator: Sketch 54 (76480) - https://sketchapp.com -->
    <title>impresora</title>
    <desc>Created with Sketch.</desc>
    <g id="Page-1" stroke="none" stroke-width="1" fill="none" fill-rule="evenodd">
        <g id="declaraciones-previas" transform="translate(-956.000000, -347.000000)" fill="#FF9914" fill-rule="nonzero">
            <g id="impresora" transform="translate(956.000000, 347.000000)">
                <rect id="Rectangle" x="8.11221399" y="19.4682222" width="8.11125103" height="1.62264609"></rect>
                <path d="M6.48994239,1.6224321 L19.4682757,1.6224321 L19.4682757,4.8671358 L21.0903868,4.8671358 L21.0903868,1.6224321 C21.0904403,0.727304527 20.3648477,0 19.4682757,0 L6.48994239,0 C5.59395885,0 4.86751029,0.727304527 4.86751029,1.6224321 L4.86751029,4.8671358 L6.48994239,4.8671358 L6.48994239,1.6224321 Z" id="Path"></path>
                <rect id="Rectangle" x="8.11221399" y="16.2236255" width="9.73336214" height="1.6224321"></rect>
                <path d="M24.335251,6.4895144 L1.62280658,6.4895144 C0.726823045,6.4895144 0.000374485597,7.21660494 0.000374485597,8.11178601 L0.000374485597,17.8460576 C0.000374485597,18.7426296 0.726823045,19.4681687 1.62280658,19.4681687 L4.86751029,19.4681687 L4.86751029,24.3354115 C4.86751029,25.232251 5.59395885,25.9577901 6.48994239,25.9577901 L19.4682757,25.9577901 C20.3648477,25.9577901 21.0903868,25.232251 21.0903868,24.3354115 L21.0903868,19.4681687 L24.3351975,19.4681687 C25.231823,19.4681687 25.9573621,18.7426296 25.9573621,17.8460576 L25.9573621,8.11178601 C25.9574156,7.21660494 25.2318765,6.4895144 24.335251,6.4895144 Z M19.4682757,24.335465 L6.48994239,24.335465 L6.48994239,14.6011934 L19.4682757,14.6011934 L19.4682757,24.335465 Z M22.7126049,11.3566502 C21.8159794,11.3566502 21.0904403,10.6310041 21.0904403,9.73421811 C21.0904403,8.83914403 21.8159794,8.11178601 22.7126049,8.11178601 C23.6094979,8.11178601 24.335251,8.83909053 24.335251,9.73421811 C24.335251,10.6309506 23.6094444,11.3566502 22.7126049,11.3566502 Z" id="Shape"></path>
            </g>
        </g>
    </g>
</svg>