<svg xmlns="http://www.w3.org/2000/svg" width="253" height="64" viewBox="0 0 253 64">
    <g fill="none" fill-rule="nonzero">
        <g fill="#31B700">
            <path d="M89.9 9.2c2.3 0 4.2-1.9 4.2-4.2 0-2.3-1.9-4.2-4.2-4.2-2.3 0-4.2 1.9-4.2 4.2 0 2.3 1.9 4.2 4.2 4.2zm0-6.4c1.2 0 2.2 1 2.2 2.2 0 1.2-1 2.2-2.2 2.2-1.2 0-2.2-1-2.2-2.2 0-1.2 1-2.2 2.2-2.2zM89.9 54.8c-2.3 0-4.2 1.9-4.2 4.2 0 2.3 1.9 4.2 4.2 4.2 2.3 0 4.2-1.9 4.2-4.2 0-2.4-1.9-4.2-4.2-4.2zm0 6.4c-1.2 0-2.2-1-2.2-2.2 0-1.2 1-2.2 2.2-2.2 1.2 0 2.2 1 2.2 2.2 0 1.2-1 2.2-2.2 2.2zM99.8 32l-3.5-4.5c-.5-.7-1 0-1 0l-11.4 15-3.6 4.4c-.3.4-.8.6-1.3.6-.9 0-1.6-.8-1.6-1.7 0-.4.1-.8.4-1l3.6-4.5s.6-.7 0-1.4l-3.5-4.5-10.3 13.3 5.4 7.1h9.2l5.7-7.1L99.8 32zM81.7 24.3L77.8 19c-.2-.3-.4-.6-.4-1 0-.9.7-1.7 1.6-1.7.5 0 1 .2 1.3.6l3.5 4.7 4-5.1-4.4-5.9-.1-.1c-.9-1.1-2.2-1.6-3.5-1.5h-6c-.5 0-1 .3-1.3.7l-5 6.5 10.2 13.2 4-5.1zM97.8 39.6l4.2 5.2c.2.3.4.6.4 1 0 .9-.7 1.7-1.6 1.7-.5 0-1-.2-1.3-.6l-3.7-4.8-4 5.1 5.9 7.5h9.2l5.4-7.1-10.4-13.2-4.1 5.2z"/>
            <path d="M83.5 36.6s.3.6.8 0l11.6-15.3 3.5-4.5c.3-.4.8-.6 1.3-.6.9 0 1.7.8 1.6 1.7 0 .4-.1.8-.4 1l-3.8 4.7c-.6.7 0 1.2 0 1.2l3.6 4.5L112 16.1l-4.9-6.6c-.3-.4-.8-.7-1.3-.7h-6c-1.3-.1-2.6.5-3.5 1.5L79.7 31.9l3.8 4.7zM71.7 31.8c0-2.3-1.9-4.2-4.2-4.2-2.3 0-4.2 1.9-4.2 4.2 0 2.3 1.9 4.2 4.2 4.2 2.3 0 4.2-1.9 4.2-4.2zM67.6 34c-1.2 0-2.2-1-2.2-2.2 0-1.2 1-2.2 2.2-2.2 1.2 0 2.2 1 2.2 2.2 0 1.3-1 2.2-2.2 2.2zM112.3 27.7c-2.3 0-4.2 1.9-4.2 4.2 0 2.3 1.9 4.2 4.2 4.2 2.3 0 4.2-1.9 4.2-4.2-.1-2.4-1.9-4.2-4.2-4.2zm0 6.3c-1.2 0-2.2-1-2.2-2.2 0-1.2 1-2.2 2.2-2.2 1.2 0 2.2 1 2.2 2.2 0 1.3-1 2.2-2.2 2.2z"/>
        </g>
        <g fill="#6F6F6E">
            <path d="M35.8 49.4c-.1.1-.2.2-.2.4 0 .1 0 .1.1.2 0 .1.1.1.1.2.1.2.3.2.6.1.4-.1.8-.3 1.3-.6.6-.4 1.1-.9 1.6-1.3-1.1.1-2.1.3-2.9.7-.3 0-.5.1-.6.3zM21.4 51.9c-.1.1-.2.1-.3.3v.4c0 .2.2.3.5.4.4.1.9 0 1.4-.1.7-.1 1.4-.3 2-.5-1-.3-2.1-.6-2.9-.6-.3 0-.5 0-.7.1zM10.3 48.9c-.7-.3-1.8-.5-2.9-.7.5.4 1.1.9 1.6 1.3.5.3.9.5 1.3.6.3.1.5 0 .6-.1 0 0 .1-.1.1-.2s0-.1.1-.2c0-.1-.1-.2-.2-.4-.1 0-.3-.2-.6-.3zM2.9 21c-.1.5-.1 1-.1 1.4.1.3.2.5.4.5h.4c.1 0 .2-.1.3-.3 0-.2.1-.5.1-.8 0-.8-.3-1.8-.6-2.9-.2.7-.4 1.4-.5 2.1zM2.9 36.1c-.1.5-.1 1-.1 1.4.1.3.2.5.4.5h.4c.1 0 .2-.1.3-.3 0-.2.1-.4.1-.7 0-.8-.2-1.9-.6-2.9-.2.6-.4 1.3-.5 2zM37.5 8.7c.3-.1.5-.2.5-.4v-.2-.2c0-.1-.1-.2-.3-.3-.2-.1-.5-.1-.8-.1-.8 0-1.9.2-2.9.6.6.2 1.4.4 2 .5.6.1 1.1.2 1.5.1zM12.9 8.7c.3-.1.5-.2.5-.4v-.2-.2c0-.1-.1-.2-.3-.3-.2-.1-.5-.1-.8-.1-.8 0-1.9.2-2.9.6.6.2 1.4.4 2 .5.6.1 1.1.2 1.5.1zM42.9 21c-.1.5-.1 1-.1 1.4.1.3.2.5.4.5h.4c.1 0 .2-.1.3-.3.1-.2.1-.5.1-.8 0-.8-.2-1.9-.6-2.9-.2.7-.4 1.4-.5 2.1zM25.2 8.7c.3-.1.5-.2.5-.4v-.2-.2c0-.1-.1-.2-.3-.3-.2-.1-.5-.1-.8-.1-.8 0-1.9.2-2.9.6.6.2 1.4.4 2 .5.6.1 1.1.2 1.5.1z"/>
            <path d="M23.4 5H.3v35c0 1.2.3 5.4 3.4 8.9 3.8 4.4 11.7 4.6 16.6 6.9 1.4.6 2.3 2.1 3.1 3.4.8-1.3 1.8-2.7 3.1-3.4 5-2.3 12.8-2.5 16.6-6.9 3.1-3.6 3.4-7.7 3.4-8.9V5H23.4zM6 33.4h7.4v.1l.3-.1h2.6v2c-.5.1-.7.4-.9.7-.2.4-.2.8-.2 1.2v3.9h-2.9v-3.6s0-2.1-2.2-2.1c-2.3 0-2.3 2-2.3 2.1v3.6H6.3c-.2-.6-.3-1.3-.3-2v-5.8zm3.4-6.1c-.2-.1-.3-.2-.5-.3-.2-.3 0-.7.1-1 0-.1 0-.1.1-.2.2-.5.1-1 0-1.4 0-.2-.1-.4-.1-.5 0-.1.1-.1.3-.1.4 0 .5.2.5.5s-.1.6-.1.9c-.2.9-.4 1.9.5 2.3 1 .3 1.1-.3 1.3-1.1.1-.6.3-1.3 1.1-1.5l.8-.2-.7-.5c-2.6-1.8-2.2-2.9-1.8-4 .2-.5.3-1 .3-1.5.1.1.2.1.3.2.7.4 1.6.8 2.6 1.1v.6c-.4.1-1 .4-1 1 0 .8 1 .7 1.1.7h1.5v.1c.2.3.5.7 1.3.5.8-.2.8-.5.9-.9 0-.1 0-.2.1-.2 0-.1.1-.1.2-.1h.2c.1 0 .1 0 .1.1v.1c0 .4.1 1-.2 1.1-.1 0-.2.1-.3.1-.8.2-2.1.5-2 1.3 0 .3.1.6.4.9.2.2.6.4 1.3.6h.1l.1-.1.4-.2v.1h.1s.4.3.3.4l-.1.1c-.3.4-.6.8-1.1.6-.2-.1-.3-.2-.5-.3-.8-.5-1.8-1-2.3-.5-.5.4-.5.7-.2 1.1l.4.4c.1.1.2.2.4.3.1.2.3.3.4.5.1.1.1.3.1.4 0 .1-.1.2-.2.4-.1.1-.2.2-.4.3-.5.2-.8.5-.9.8-.1.2-.1.4 0 .5.1.2.2.3.3.4.3.2.7.3 1.2.2.4-.1.5 0 .5.1v.1c0 .1 0 .3-.4.4-.5.1-1.6.4-2.2.5l-.3-2.4c.1-.1.2-.1.3-.2.3-.2.5-.3.6-.4.5-.4.4-.8-.5-1.8-.6-.6-.9-.4-1.7.2-.1.1-.3.2-.4.3l-.2.2.1.3c.2.6-.3.9-.7 1.2-.4.3-.8.5-.7 1 .2.9.3.9 1.4.7 0 0 .1.1.1.2s.1.2.1.3V32.3c-.1 0-.2.1-.4.1-.4.1-1 .2-1.5.3-.3 0-.5.2-.6.2 0-.1-.1-.2-.1-.4-.2-.7-.7-2.2-.5-2.4.4-.3.8-.5 1.1-.6.5-.2.7-.4.8-.7 0-.8-.4-1-1.2-1.5zm9.9-4.1v2c-.1 0-.1-.1-.1-.1-.2-.1-.6-.4-1.3-.1-.5-.1-.7-.2-.8-.4-.1-.1-.1-.3-.2-.4 0-.1.9-.4 1.5-.5.1 0 .3-.1.3-.1.3 0 .4-.2.6-.4zm-6.6 6.7l.6 2.7h-1.1c.2-.1.4-.3.4-.5v-.5c0-.2-.1-.3-.2-.5-.2-.3-.4-.6-.7-.6h-.1c-.4.1-.4.1-.5-.1l.4-.2c.6-.3 1.3-.8 1.1-1.7.1 0 .1-.1.2-.1.5-.3.6-.4.8-.3.5.5.6.7.5.7-.1.1-.3.2-.5.3l-.6.3-.2.1-.1.4zm-4.5 12h.4v-4.3s0-1.4 1.6-1.4c1.5 0 1.5 1.4 1.5 1.4v4.3H16v-4.7c0-.3 0-.6.1-.9.1-.2.3-.3.6-.3h.3v-3.4h-.5c.7-.3.6-.8.6-1v-.2c-.1-.4-.3-.9-1.3-.7-.3.1-.5 0-.7-.1l-.1-.1v-.1c0-.1.2-.3.5-.4.3-.1.5-.3.6-.4.3-.3.4-.5.4-.8 0-.3 0-.5-.1-.8-.1-.3-.3-.5-.5-.7-.1-.2-.3-.3-.4-.4l-.3-.3.1-.1c.1-.1.8.3 1.4.6.2.1.4.2.5.3.9.4 1.4 0 1.8-.5v5.7h-1.1v3.5h.4c.2 0 .5.1.6.2.1.1.2.3.2.6V42h.8l-1.4 7.4c-6.5-1-10.6-4-12-7.5h1.7zm11.9-.7v-4.3c0-.5-.2-.9-.4-1.1-.2-.2-.5-.3-.8-.4v-2h8.8v2c-.3.1-.5.2-.7.4-.3.3-.4.7-.4 1.1v4.3h-.3l-.9-5.6v-.3H21.4l-.1.3-1.1 5.6h-.1zm.4-25.3h2.2v-1.5H24v1.5h2.8v-1.5h1v2.7l-1.1 1.2-.1.1v14.2h-1v-4.3c0-.7-.3-1.2-.7-1.6-.5-.5-1.1-.7-1.7-.7-.6 0-1.1.2-1.6.7-.4.4-.6 1-.6 1.7v4.3h-1.2V18.4l-.1-.1-.7-1.2v-2.7h1.1v1.5h.4zm10.4 6.5h1.5c.1 0 1.1 0 1.1-.7 0-.6-.6-.9-1-1V20c1-.3 1.9-.7 2.5-1.1.1-.1.3-.1.4-.2 0 .5.2 1 .3 1.5.4 1.1.7 2.2-1.8 4l-.7.5.8.2c.9.2 1 .9 1.1 1.5.2.8.3 1.4 1.3 1.1.9-.4.7-1.3.5-2.3-.1-.3-.1-.7-.1-.9 0-.3.1-.5.5-.5.3 0 .3.1.3.1 0 .1 0 .3-.1.5-.1.4-.2.9 0 1.4 0 0 0 .1.1.2.1.3.3.7.1 1-.2.1-.3.2-.5.3-.8.5-1.1.8-1.1 1.1 0 .3.3.5.8.7.3.1.6.3 1.1.6.2.1-.3 1.6-.5 2.4-.1.2-.1.4-.1.4 0 .1-.2-.1-.6-.2-.5-.1-1.1-.2-1.5-.3H35v-.1-.2c0-.1 0-.2.1-.3 0-.1.1-.1.1-.2 1.1.3 1.1.3 1.4-.7.1-.5-.2-.7-.7-1-.4-.2-.9-.5-.7-1.2l.1-.3-.3.1c-.2-.1-.3-.2-.4-.3-.8-.6-1.1-.8-1.7-.2-.9.9-1 1.3-.5 1.8.1.1.4.3.6.4.1.1.2.1.3.2l-.5 2.5c-.6-.1-1.6-.4-2.2-.5-.4-.1-.4-.3-.4-.4v-.1c0-.1.1-.2.5-.1.5.1 1 0 1.2-.2.2-.1.3-.3.3-.4.1-.2.1-.4 0-.5-.1-.3-.4-.6-.9-.8-.2-.1-.4-.2-.5-.3-.1-.1-.2-.2-.2-.4 0-.1 0-.3.1-.4.1-.2.2-.4.4-.5l.3-.3.3-.3c.3-.4.4-.7-.1-1.2s-1.5.1-2.3.5c-.2.1-.3.2-.5.2-.5.2-.8-.2-1.1-.6l-.1-.1c-.1-.2.2-.4.2-.4s.1-.1.5.1l.1.1h.2c.7-.2 1.1-.4 1.3-.6.3-.3.3-.5.4-.9.1-.8-1.2-1.1-2-1.3-.1 0-.2 0-.3-.1-.3-.1-.2-.8-.2-1.1v-.1s.1 0 .1-.1h.2c.1 0 .2 0 .2.1.1.1.1.2.1.2 0 .4.1.7.9.9 1.2.2 1.4-.2 1.6-.5.1 0 0 0 0 0zm3.3 9.7c.1.2.2.4.4.5h-1.1l.6-2.7.1-.2-.2-.1-.6-.3c-.2-.1-.4-.2-.5-.3-.1-.1.1-.2.5-.7.1-.1.3 0 .8.3l.2.1c-.2 1 .5 1.4 1.1 1.7.2.1.4.1.4.2-.1.2-.1.2-.5.1h-.1c-.3 0-.6.2-.7.6-.1.1-.1.3-.2.5-.2 0-.2.1-.2.3zm-6.1-8.5c.1 0 .2 0 .3.1.6.1 1.5.4 1.5.5 0 .2 0 .3-.2.4-.1.1-.4.2-.8.4-.6-.3-1.1-.1-1.2.1-.1 0-.2.1-.3.2v-2.4c.1.4.3.6.7.7zm-3.2 4.8v4.3h-3v-4.3c0-.5.2-.9.4-1.2.3-.3.7-.5 1-.5.4 0 .8.2 1.1.5.3.3.5.7.5 1.2zM27 42h.4V36.9c0-.3.1-.5.2-.6.1-.1.3-.2.6-.2h.4v-3.5h-1.1v-5.9c.4.6 1 1.2 1.9.7.1-.1.3-.2.5-.3.6-.3 1.3-.7 1.5-.6.1.1.1.1.1.2-.1.1-.2.1-.3.2-.1.1-.2.2-.4.3-.2.2-.4.5-.5.7-.1.2-.2.5-.1.8 0 .3.1.6.4.8.2.2.4.3.7.5.3.1.5.3.5.4v.1s0 .1-.1.1c-.1.1-.4.1-.7.1-1-.2-1.3.4-1.3.7v.2c0 .3-.1.8.6 1h-.5V36h.3c.4 0 .5.2.6.3.1.2.1.6.1.9v4.7h4.4v-4.3s0-1.4 1.5-1.4c1.6 0 1.6 1.4 1.6 1.4v4.3h2.1c-1.4 3.6-5.6 6.6-12.5 7.5L26.5 42h.5zm13.5-.8h-1.6v-3.6c0-.1 0-2.1-2.3-2.1s-2.2 2.1-2.2 2.1v3.6h-2.9v-3.9c0-.4 0-.8-.2-1.2-.2-.3-.4-.6-.9-.7v-2H33l.3.1v-.1h7.4v5.8c.1.7 0 1.3-.2 2zM32.9 7.8c1.4-.5 3-.9 4.1-.9.4 0 .8.1 1 .2.3.1.6.4.7.7.1.1.1.3.1.5v.4c-.1.5-.5.8-1.1.9-.5.1-1 .1-1.7 0-1.1-.2-2.3-.6-3.1-.9l-.9-.6.9-.3zm-12.4 0c1.4-.5 3-.9 4.1-.9.4 0 .8.1 1 .2.3.1.6.4.7.7.1.1.1.3.1.5v.4c-.1.5-.5.8-1.1.9-.5.1-1 .1-1.7 0-1.1-.2-2.3-.6-3.1-.9l-.9-.3.9-.6zm-12.3 0c1.4-.5 3-.9 4.1-.9.4 0 .8.1 1 .2.3.1.6.4.7.7.1.1.1.3.1.5v.4c-.1.3-.5.6-1.1.7-.5.1-1 .1-1.7-.1-1.1-.2-2.3-.6-3.1-.9l-.9-.3.9-.3zm32.6 3.1v21.8h-2.6c0-.1.1-.2.1-.3.3-.9.9-2.8.2-3.2-.5-.3-.9-.5-1.2-.6-.2-.1-.3 0-.4-.1 0-.1.2-.1.8-.5.1-.1.3-.2.5-.4.6-.6.3-1.3.1-1.8 0 0 0-.1-.1-.1-.1-.3 0-.7 0-1 0-.2.1-.4.1-.6 0-.5-.2-.9-1.1-.9-1 0-1.3.5-1.3 1.2 0 .3.1.7.2 1.1.1.6.3 1.3-.1 1.4-.2 0-.3-.2-.3-.6-.1-.6-.3-1.3-1-1.8 2.4-1.9 2-3.1 1.6-4.4-.2-.6-.4-1.1-.2-1.7l.1-.5h-.5c-.2 0-.6.2-1.1.5-.7.4-1.7.9-2.6 1.1l-.3.1v1.8l.3.1s.7.1.7.4h-1.9c-.3 0-.5.2-.6.4-.1.1-.2.3-.6.2-.3-.1-.3-.2-.3-.3 0-.2 0-.4-.2-.6-.2-.2-.5-.3-.8-.3-.2 0-.3 0-.5.1-.2 0-.3.1-.4.2-.1.1-.2.2-.2.3v-2.8l1.1-1.2.1-.1v-4.2H26v1.5h-1.3v-1.5h-2.9v1.5h-1.1v-1.5h-2.6v3.7l.1.1.9 1.2v2.6l-.1-.1c-.1-.1-.3-.2-.4-.2-.1 0-.3-.1-.5-.1-.3 0-.6.1-.8.3-.2.2-.2.4-.2.6 0 .1 0 .2-.3.3-.4.1-.5-.1-.6-.2-.1-.2-.3-.4-.6-.4h-1.5-.4c0-.3.7-.4.7-.4l.3-.1v-1.8l-.3-.1c-1-.2-2-.7-2.7-1.1-.5-.3-.9-.5-1.1-.4h-.4l.1.4c.1.6 0 1.2-.2 1.7-.4 1.3-.9 2.6 1.6 4.4-.7.4-.9 1.2-1 1.8-.1.3-.1.6-.3.6-.3-.2-.2-.8-.1-1.4.1-.4.2-.7.2-1.1 0-.7-.3-1.2-1.3-1.2-.8 0-1.1.3-1.1.9 0 .2 0 .4.1.6.1.3.2.7 0 1 0 .1 0 .1-.1.1-.2.5-.5 1.2.1 1.8.2.2.4.3.5.4.5.4.8.4.8.5 0 .1-.1 0-.4.1-.3.1-.7.3-1.2.6-.7.4-.1 2.3.2 3.2 0 .1.1.3.1.3H6V10.9h34.8zM4.5 38c-.1.3-.4.6-.7.7-.1.1-.3.1-.5.1h-.4c-.5-.1-.8-.5-.9-1.1-.1-.5-.1-1.1 0-1.7.2-1.1.6-2.3.9-3.1l.5-.9.3.9c.5 1.4.9 3 .9 4.1.1.3.1.7-.1 1zm0-15.1c-.1.3-.4.6-.7.7-.1.1-.3.1-.5.1h-.4c-.5-.1-.8-.5-.9-1.1-.1-.5-.1-1.1 0-1.7.2-1.1.6-2.3.9-3.1l.3-.9.3.9c.5 1.4.9 3 .9 4.1.3.3.3.7.1 1zm7.3 27.2c-.1.1-.1.3-.2.4-.3.4-.8.5-1.4.4-.5-.1-1-.4-1.5-.7-.9-.6-1.9-1.5-2.5-2.1l-.7-.7.9.1c1.5.1 3.1.3 4.1.8.4.2.7.4.9.6.2.3.4.6.4.9.1.1 0 .2 0 .3zm7.7-.6l1.5-7.8 1.1-5.6h2.8l.8 5.1.1.4 1.3 7.8c-1.1.1-2.3.2-3.6.2-1.5.1-2.8 0-4-.1zm6.7 3.2c-.8.3-2 .7-3.1.9-.6.1-1.2.1-1.7 0-.6-.1-1-.4-1.1-.9v-.4c0-.2 0-.3.1-.5.1-.3.4-.5.7-.7.3-.1.6-.2 1-.2 1.1 0 2.7.4 4.1.9l.9.3-.9.6zm14.3-4.6c-.6.6-1.5 1.5-2.5 2.1-.5.3-1 .6-1.5.7-.6.1-1 0-1.4-.4-.1-.1-.1-.2-.2-.4-.1-.1-.1-.3-.1-.4 0-.3.1-.6.4-.9.2-.2.5-.4.9-.6 1-.5 2.7-.7 4.1-.8l.9-.1-.6.8zm4-10.1c-.1.3-.4.6-.7.7-.1.1-.3.1-.5.1h-.4c-.5-.1-.8-.5-.9-1.1-.1-.5-.1-1.1 0-1.7.2-1.1.6-2.3.9-3.1l.3-.9.3.9c.5 1.4.9 3 .9 4.1.3.3.2.7.1 1zm0-15.1c-.1.3-.4.6-.7.7-.1.1-.3.1-.5.1h-.4c-.5-.1-.8-.5-.9-1.1-.1-.5-.1-1.1 0-1.7.2-1.1.6-2.3.9-3.1l.3-.9.3.9c.5 1.4.9 3 .9 4.1.3.3.2.7.1 1z"/>
            <path d="M42.9 36.1c-.1.5-.1 1-.1 1.4.1.3.2.5.4.5h.4c.1 0 .2-.1.3-.3.1-.2.1-.5.1-.8 0-.8-.2-1.9-.6-2.9-.2.7-.4 1.4-.5 2.1z"/>
        </g>
        <g fill="#6F6F6E">
            <path d="M128.8 23.9c0-2.2 1.6-4.2 4-4.2 1.4 0 2.2.4 3 1.1l-.6.7c-.6-.5-1.3-.9-2.5-.9-1.8 0-3.1 1.5-3.1 3.3 0 1.9 1.2 3.4 3.2 3.4.9 0 1.8-.4 2.3-.8v-2h-2.5v-.8h3.3v3.2c-.8.7-1.9 1.2-3.2 1.2-2.3 0-3.9-1.9-3.9-4.2zM139.1 23.9c0-2.2 1.7-4.2 4.1-4.2 2.5 0 4.1 1.9 4.1 4.2 0 2.2-1.7 4.2-4.1 4.2-2.4 0-4.1-1.9-4.1-4.2zm7.3 0c0-1.9-1.3-3.4-3.2-3.4-1.9 0-3.2 1.5-3.2 3.3 0 1.8 1.3 3.3 3.2 3.3 1.9 0 3.2-1.3 3.2-3.2zM150.5 19.9h3.4c.9 0 1.6.3 2.1.7.3.3.5.8.5 1.3 0 1-.6 1.6-1.3 1.9 1 .3 1.7.8 1.7 1.9 0 1.4-1.2 2.2-2.9 2.2h-3.6v-8h.1zm5.2 2.1c0-.8-.6-1.3-1.8-1.3h-2.5v2.8h2.4c1.1 0 1.9-.5 1.9-1.5zm-1.7 2.3h-2.5v2.8h2.7c1.2 0 2-.5 2-1.4-.1-.9-.8-1.4-2.2-1.4zM160.2 19.9h.9V28h-.9zM164.7 19.9h5.8v.8h-4.9v2.8h4.4v.8h-4.4v2.8h5v.8h-5.9zM173.7 19.9h3.5c1 0 1.8.3 2.3.8.4.4.6 1 .6 1.6 0 1.3-.9 2.1-2.2 2.4l2.5 3.3h-1.1l-2.3-3.1h-2.3V28h-.9v-8.1h-.1zm3.4 4.1c1.2 0 2.1-.6 2.1-1.7 0-1-.8-1.6-2.1-1.6h-2.5V24h2.5zM183.3 19.9h.9l5.1 6.5v-6.5h.9V28h-.7l-5.2-6.6V28h-.9v-8.1zM193.3 23.9c0-2.2 1.7-4.2 4.1-4.2 2.4 0 4.1 1.9 4.1 4.2 0 2.2-1.7 4.2-4.1 4.2-2.5 0-4.1-1.9-4.1-4.2zm7.3 0c0-1.9-1.3-3.4-3.2-3.4-1.8 0-3.2 1.5-3.2 3.3 0 1.8 1.3 3.3 3.2 3.3 1.9 0 3.2-1.3 3.2-3.2zM209.4 19.9h2.8c2.5 0 4.3 1.7 4.3 4s-1.8 4-4.3 4h-2.8v-8zm.9.8v6.4h1.9c2 0 3.3-1.4 3.3-3.2 0-1.8-1.3-3.2-3.3-3.2h-1.9zM219.7 19.9h5.8v.8h-4.9v2.8h4.4v.8h-4.4v2.8h5v.8h-5.9zM233.4 19.9h.9v7.2h4.5v.8h-5.5v-8zM244.7 19.8h.9l3.7 8.1h-1l-.9-2.1H243l-1 2.1h-.9l3.6-8.1zM247 25l-1.8-4.1-1.8 4.1h3.6zM128.7 37.8c0-2.3 1.7-4.2 4.2-4.2 1.5 0 2.4.5 3.2 1.2l-1.1 1.3c-.6-.6-1.3-.9-2.1-.9-1.4 0-2.3 1.1-2.3 2.5s1 2.5 2.3 2.5c.9 0 1.5-.4 2.1-.9l1.1 1.1c-.8.9-1.8 1.4-3.3 1.4-2.4.1-4.1-1.7-4.1-4zM138 33.7h1.8v8.1H138zM142 38.3v-4.6h1.8v4.6c0 1.3.7 2 1.7 2 1.1 0 1.7-.7 1.7-1.9v-4.6h1.8v4.6c0 2.4-1.4 3.6-3.5 3.6-2.2-.1-3.5-1.3-3.5-3.7zM151.2 33.7h3.1c2.5 0 4.3 1.7 4.3 4s-1.8 4-4.3 4h-3.1v-8zm3.1 6.5c1.5 0 2.4-1 2.4-2.4s-1-2.4-2.4-2.4H153v4.9h1.3v-.1zM162.7 33.7h1.6l3.5 8.1H166l-.7-1.8h-3.4l-.7 1.8h-1.8l3.3-8.1zm1.9 4.7l-1.1-2.6-1.1 2.6h2.2zM169.4 33.7h3.1c2.5 0 4.3 1.7 4.3 4s-1.8 4-4.3 4h-3.1v-8zm3.2 6.5c1.5 0 2.4-1 2.4-2.4s-1-2.4-2.4-2.4h-1.4v4.9h1.4v-.1zM182.6 33.7h3.1c2.5 0 4.3 1.7 4.3 4s-1.8 4-4.3 4h-3.1v-8zm3.2 6.5c1.5 0 2.4-1 2.4-2.4s-1-2.4-2.4-2.4h-1.4v4.9h1.4v-.1zM192 33.7h6.1v1.6h-4.3v1.6h3.8v1.6h-3.8v1.7h4.4v1.6H192zM203.9 33.7h1.9l2.1 3.4 2.1-3.4h1.9v8.1h-1.8v-5.3l-2.3 3.4-2.2-3.4v5.2h-1.7zM214.2 33.7h6.1v1.6H216v1.6h3.8v1.6H216v1.7h4.4v1.6h-6.1v-8.1h-.1zm3.4-2.7l1.5.7-1.5 1.4h-1.3l1.3-2.1zM224.5 37.7l-2.7-4h2.1l1.7 2.6 1.7-2.6h2l-2.7 3.9 2.8 4.1h-2.1l-1.8-2.8-1.8 2.8h-2zM231.2 33.7h1.8v8.1h-1.8zM234.9 37.8c0-2.3 1.7-4.2 4.2-4.2 1.5 0 2.4.5 3.2 1.2l-1.1 1.3c-.6-.6-1.3-.9-2.1-.9-1.4 0-2.3 1.1-2.3 2.5s1 2.5 2.3 2.5c.9 0 1.5-.4 2.1-.9l1.1 1.1c-.8.9-1.8 1.4-3.3 1.4-2.3.1-4.1-1.7-4.1-4zM243.6 37.8c0-2.3 1.8-4.2 4.3-4.2s4.3 1.9 4.3 4.2c0 2.3-1.8 4.2-4.3 4.2-2.5-.1-4.3-1.9-4.3-4.2zm6.7 0c0-1.4-1-2.6-2.4-2.6s-2.4 1.1-2.4 2.5 1 2.5 2.4 2.5c1.4.1 2.4-1 2.4-2.4z"/>
        </g>
    </g>
</svg>
