<svg xmlns="http://www.w3.org/2000/svg" width="131" height="34" viewBox="0 0 131 34">
    <g fill="none" fill-rule="nonzero">
        <path fill="#FFF" d="M80.245 7.675l-.516-1.286h-2.375l-.516 1.286h-1.261l2.41-5.77h1.139l2.41 5.77h-1.291zM78.544 3.42l-.746 1.859h1.491l-.745-1.86zM84.913 7.774c-1.752 0-2.952-1.25-2.952-2.947V4.81c0-1.63 1.246-2.963 2.946-2.963 1.012 0 1.625.276 2.207.787l-.782.958c-.434-.37-.817-.584-1.47-.584-.9 0-1.614.813-1.614 1.786v.016c0 1.047.704 1.817 1.7 1.817.45 0 .853-.114 1.165-.343v-.818h-1.246V4.38h2.44v2.489a3.582 3.582 0 0 1-2.394.906zM88.661 7.675V1.947h4.24v1.12h-3.014v1.16h2.65v1.12h-2.65V6.55h3.049v1.12zM98.14 7.675l-2.722-3.64V7.68h-1.22V1.947h1.138l2.636 3.53v-3.53h1.22v5.728zM103.334 7.774c-1.655 0-2.88-1.302-2.88-2.947V4.81c0-1.63 1.205-2.963 2.931-2.963 1.063 0 1.696.36 2.217.886l-.787.926c-.434-.4-.873-.645-1.435-.645-.95 0-1.629.802-1.629 1.786v.015c0 .984.664 1.802 1.63 1.802.643 0 1.036-.26 1.475-.672l.787.812c-.583.625-1.226 1.016-2.309 1.016zM106.843 7.675V1.947h1.236v5.728zM113.83 7.675l-.516-1.286h-2.375l-.516 1.286h-1.261l2.41-5.77h1.14l2.41 5.77h-1.292zm-1.706-4.254l-.746 1.859h1.491l-.745-1.86zM78.258 15.787h-2.191v-5.728h2.19c1.768 0 2.989 1.234 2.989 2.849v.015c-.006 1.609-1.226 2.864-2.988 2.864zm1.69-2.864c0-1.015-.684-1.729-1.695-1.729h-.955v3.453h.955c1.01 0 1.695-.698 1.695-1.713v-.01zM82.558 15.787v-5.728h1.236v5.728zM88.064 15.886c-1.752 0-2.952-1.255-2.952-2.947v-.016c0-1.63 1.246-2.963 2.947-2.963 1.01 0 1.624.276 2.206.787l-.776.958c-.435-.37-.818-.583-1.471-.583-.9 0-1.614.812-1.614 1.786v.015c0 1.047.705 1.817 1.7 1.817.45 0 .853-.114 1.165-.343v-.818h-1.246v-1.088h2.441v2.489a3.638 3.638 0 0 1-2.4.906zM91.869 15.787v-5.728h1.235v5.728zM97.216 11.22v4.567H95.98V11.22h-1.711v-1.162h4.653v1.162zM103.498 15.787l-.516-1.286h-2.375l-.516 1.286H98.83l2.41-5.77h1.14l2.41 5.77h-1.292zm-1.706-4.254l-.746 1.859h1.492l-.746-1.86zM105.816 15.787v-5.728h1.236v4.582h2.804v1.146zM115.704 15.787h-2.191v-5.728h2.19c1.768 0 2.989 1.234 2.989 2.849v.015c0 1.609-1.221 2.864-2.988 2.864zm1.695-2.864c0-1.015-.684-1.729-1.695-1.729h-.955v3.453h.955c1.011 0 1.695-.698 1.695-1.713v-.01zM119.953 15.787v-5.728h4.24v1.12h-3.01v1.161h2.652v1.12h-2.651v1.202h3.049v1.125h-4.28zM76.118 23.899v-5.727h1.236v5.727zM82.865 23.899l-2.723-3.645V23.9h-1.22v-5.727h1.139l2.635 3.53v-3.53h1.22v5.727zM89.366 23.899l-2.722-3.645V23.9h-1.22v-5.727h1.143l2.636 3.53v-3.53h1.22v5.727zM94.657 23.993c-1.736 0-2.977-1.318-2.977-2.947v-.01c0-1.63 1.261-2.963 2.992-2.963 1.732 0 2.978 1.317 2.978 2.941v.021c0 1.625-1.262 2.958-2.993 2.958zm1.7-2.963c0-.984-.704-1.802-1.7-1.802s-1.685.802-1.685 1.786v.021c0 .984.704 1.802 1.7 1.802s1.686-.802 1.686-1.786v-.021zM101.434 23.935h-1.093l-2.272-5.769h1.363l1.471 4.036 1.471-4.036h1.333zM108.115 23.899l-.516-1.286h-2.375l-.516 1.286h-1.261l2.41-5.77h1.14l2.41 5.77h-1.292zm-1.706-4.26l-.746 1.86h1.491l-.745-1.86zM112.706 23.993c-1.655 0-2.88-1.302-2.88-2.947v-.01c0-1.63 1.205-2.963 2.931-2.963 1.062 0 1.696.359 2.217.885l-.787.927c-.434-.401-.873-.646-1.435-.646-.945 0-1.63.802-1.63 1.786v.015c0 .985.665 1.802 1.63 1.802.643 0 1.037-.26 1.476-.672l.786.813c-.582.62-1.225 1.01-2.308 1.01zM116.21 23.899v-5.727h1.235v5.727zM121.746 23.993c-1.732 0-2.978-1.318-2.978-2.947v-.01c0-1.63 1.262-2.963 2.993-2.963 1.731 0 2.978 1.317 2.978 2.947v.015c0 1.625-1.262 2.958-2.993 2.958zm1.7-2.963c0-.984-.704-1.802-1.7-1.802s-1.686.802-1.686 1.786v.021c0 .984.705 1.802 1.701 1.802.996 0 1.685-.802 1.685-1.786v-.021zm-2.13-3.311l.91-1.448 1.052.469-1.027.984-.934-.005zM129.938 23.899l-2.717-3.645V23.9H126v-5.727h1.139l2.635 3.53v-3.53h1.22v5.727zM78.242 30.288h-.94v1.718h-1.235v-5.728h2.298c1.338 0 2.15.813 2.15 1.979v.016c-.005 1.327-1.016 2.015-2.273 2.015zm1.022-2.005c0-.562-.383-.87-1.006-.87h-.955v1.75h.98c.618 0 .98-.375.98-.87v-.01zM83.932 32.1c-1.512 0-2.431-.86-2.431-2.547v-3.275h1.236v3.244c0 .932.46 1.416 1.21 1.416.751 0 1.21-.468 1.21-1.374v-3.28h1.237v3.233c.005 1.729-.95 2.583-2.462 2.583zm-.536-6.233l.909-1.447 1.052.468-1.027.984-.934-.005zM90.49 32.006h-2.671v-5.728h2.61c1.148 0 1.853.584 1.853 1.48v.015c0 .645-.337 1.005-.74 1.234.648.255 1.052.64 1.052 1.406v.015c0 1.057-.833 1.578-2.104 1.578zm.561-4.035c0-.375-.29-.589-.812-.589h-1.22v1.213h1.139c.546 0 .888-.182.888-.604l.005-.02zm.312 2.29c0-.385-.281-.624-.914-.624h-1.43v1.26h1.47c.547 0 .874-.198.874-.625v-.01zM93.774 32.006v-5.728h1.235v4.582h2.804v1.146zM98.962 32.006v-5.728h1.236v5.728zM104.397 32.105c-1.655 0-2.88-1.302-2.88-2.947v-.016c0-1.63 1.204-2.963 2.93-2.963 1.063 0 1.696.36 2.217.886l-.786.921c-.434-.4-.874-.645-1.436-.645-.95 0-1.629.801-1.629 1.785v.016c0 .984.664 1.802 1.63 1.802.643 0 1.036-.26 1.475-.672l.787.812c-.582.63-1.226 1.02-2.308 1.02zM112.032 32.006l-.516-1.286h-2.375l-.516 1.286h-1.261l2.41-5.77h1.14l2.41 5.77h-1.292zm-1.706-4.254l-.746 1.859h1.492l-.746-1.86zM51.316 17.495V7.435c0-.015 0-.036-.017-.052v10.112h.017z"/>
        <path fill="#FFF" d="M68.983 10.382C68.82 4.785 64.131.23 58.53.23h-8.892c-1.098 0-1.992.911-1.992 2.03v9.175c.01.047.026.099.036.146.506 2.202.684 4.467.531 6.722a21.976 21.976 0 0 1-.531 3.535V33.59s2.942 1.145 3.565-.427V21.16c2.201.005 7.344.005 7.467.005 5.679-.005 10.275-4.701 10.27-10.491.005-.094 0-.193 0-.292zm-5.475 5.05a6.578 6.578 0 0 1-4.79 2.073c-.128 0-5.271-.005-7.467-.005h-.005V3.89h7.288c3.677 0 6.751 2.957 6.859 6.596a6.829 6.829 0 0 1-1.885 4.947z"/>
        <path fill="#666" d="M43.994 6.925a14.92 14.92 0 0 0-.9-1.093v.062c.317.354.614.719.9 1.093v-.062z"/>
        <path fill="#FFF" d="M45.653 9.601a17.99 17.99 0 0 0-.551-1.02 17.912 17.912 0 0 0-.552-.88 21.352 21.352 0 0 0-.556-.781v.057a16.36 16.36 0 0 0-.9-1.093 14.32 14.32 0 0 0-.868-.901v5.43a13.038 13.038 0 0 1 1.625 6.332c0 6.92-5.368 12.61-12.171 13.157l.087.177 1.026 2.13.46.958.082.172a16.453 16.453 0 0 0 4.795-1.552l.424-.219c.348-.187.695-.39 1.027-.598l.082-.052a16.92 16.92 0 0 0 4.882-4.785 15.486 15.486 0 0 0 1.103-1.896 16.22 16.22 0 0 0 1.66-5.95A16.507 16.507 0 0 0 45.653 9.6zM32.073 33.318l-1.568-3.265-.046-.099-.224-.468-.281-.583-5.25-11.143v6.821l1.726 3.525.342.713.174.365a.82.82 0 0 1 .04.12l.108.223.199.417 1.65 3.442.02.041c.01.016.02.026.03.037.108.01.22.026.328.036h2.717a.125.125 0 0 0 .097-.047l-.062-.135zM18.212 3.983l.005-.005-.944-1.968-.915-1.89a.142.142 0 0 0-.046-.063.157.157 0 0 0-.091-.047.149.149 0 0 0-.052-.01c-.02 0-.035.005-.056.01a.203.203 0 0 0-.092.052.244.244 0 0 0-.046.063L.015 33.281a.152.152 0 0 0 .005.141.143.143 0 0 0 .123.068h2.314c.423 0 .807-.245.995-.63L5.2 29.225a.187.187 0 0 1 .02-.046l9.076-18.86c.164-.452.352-.895.552-1.332a1.94 1.94 0 0 0 .066-.151c.092-.193.184-.38.281-.568.03-.062.061-.125.097-.182l.036-.068c.087-.161.173-.328.265-.49.031-.051.056-.098.087-.15.107-.182.215-.36.327-.536l3.616 7.372V6.972l-1.41-2.989z"/>
        <path fill="#96B737" d="M42.308 21.092v-.036a12.363 12.363 0 0 1-2.722 4.249c-.23.234-.47.453-.715.666v.052a12.385 12.385 0 0 0 3.437-4.93z"/>
        <path fill="#66A13C" d="M38.794 32.813v.65a.08.08 0 0 0 .077.079h2.794c.311 0 .567-.26.567-.578v-2.426a17.826 17.826 0 0 1-3.438 2.275zM42.022.12h-3.018a.211.211 0 0 0-.21.208v25.643c.246-.208.486-.422.71-.65a12.098 12.098 0 0 0 2.722-4.166V.328a.207.207 0 0 0-.204-.208z"/>
        <path fill="#FFF" d="M30.24.12h-9.326a.384.384 0 0 0-.383.38v32.1c.005.426.347.77.766.765l1.512.005 4.877.01-1.64-3.42h-2.083V3.587s6.313-.041 6.634-.041c2.962-.005 5.843.99 8.187 2.837V2.406A17.126 17.126 0 0 0 30.24.12z"/>
    </g>
</svg>
