<svg xmlns="http://www.w3.org/2000/svg" width="18" height="18" viewBox="0 0 18 18">
    <path fill="#31B700" fill-rule="nonzero" d="M16.793 4.482a8.962 8.962 0 0 0-3.275-3.275A8.804 8.804 0 0 0 9 0a8.804 8.804 0 0 0-4.517 1.207 8.96 8.96 0 0 0-3.276 3.275A8.803 8.803 0 0 0 0 9c0 1.633.402 3.138 1.207 4.518a8.962 8.962 0 0 0 3.275 3.275A8.804 8.804 0 0 0 9 18a8.805 8.805 0 0 0 4.518-1.207 8.96 8.96 0 0 0 3.275-3.275A8.805 8.805 0 0 0 18 9c0-2.338-.028-2.498-1.207-4.518zM14.25 9.75a.72.72 0 0 1-.222.527.722.722 0 0 1-.528.223h-3v3a.722.722 0 0 1-.223.528.72.72 0 0 1-.527.222h-1.5a.721.721 0 0 1-.527-.222.722.722 0 0 1-.223-.528v-3h-3a.721.721 0 0 1-.527-.223.72.72 0 0 1-.223-.527v-1.5a.72.72 0 0 1 .223-.527A.72.72 0 0 1 4.5 7.5h3v-3a.72.72 0 0 1 .223-.527.72.72 0 0 1 .527-.223h1.5a.72.72 0 0 1 .528.223.721.721 0 0 1 .222.527v3h3a.72.72 0 0 1 .528.223.72.72 0 0 1 .222.527v1.5z"/>
</svg>
