<svg xmlns="http://www.w3.org/2000/svg" width="20" height="25" viewBox="0 0 20 25">
    <g fill="#FF9914" fill-rule="nonzero">
        <path d="M13.209 16.895a3.666 3.666 0 0 1-2.936 3.588V25h8.072a.726.726 0 0 0 .734-.732v-1.465a8.133 8.133 0 0 0-5.87-7.798v1.89zM0 24.268c0 .41.323.732.734.732h8.072v-4.517a3.666 3.666 0 0 1-2.936-3.588v-1.89A8.133 8.133 0 0 0 0 22.803v1.465zM.734 4.443a.733.733 0 0 0 .734-.732V1.465h2.201a.733.733 0 1 0 0-1.465H.734A.733.733 0 0 0 0 .732v2.979c0 .405.328.732.734.732zM0 13.965c0 .405.328.732.734.732h2.935a.733.733 0 1 0 0-1.465H1.468v-2.197a.733.733 0 0 0-1.468 0v2.93zM18.345 0H15.41a.733.733 0 1 0 0 1.465h2.201V3.71a.733.733 0 0 0 1.468 0V.732A.733.733 0 0 0 18.345 0zM18.345 14.697a.733.733 0 0 0 .734-.732v-2.93a.733.733 0 0 0-1.468 0v2.197H15.41a.733.733 0 1 0 0 1.465h2.935zM14.676 5.908h-2.201a.734.734 0 0 1-.52-.214l-.948-.947-.949.947a.734.734 0 0 1-.519.214H4.403v.132a2.19 2.19 0 0 0-1.468 2.065c0 .967.631 1.788 1.512 2.08a5.037 5.037 0 0 0 1.79 3.282 4.59 4.59 0 0 0 1.101.718v2.71c0 1.215.983 2.197 2.201 2.197a2.196 2.196 0 0 0 2.202-2.197v-2.71a4.59 4.59 0 0 0 1.1-.718 5.037 5.037 0 0 0 1.791-3.282 2.196 2.196 0 0 0 1.512-2.08 2.19 2.19 0 0 0-1.468-2.065v-.132zm-5.137 5.86a2.202 2.202 0 0 1-2.2-2.198.733.733 0 0 1 1.467 0 .734.734 0 0 0 1.467 0 .733.733 0 0 1 1.468 0 2.202 2.202 0 0 1-2.202 2.198zM11.007 0H8.072c-2.025 0-3.67 1.69-3.67 3.71v.733h4.834l1.252-1.25a.735.735 0 0 1 1.038 0l1.253 1.25h1.897v-.732C14.676 1.689 13.032 0 11.007 0z"/>
    </g>
</svg>
