<svg xmlns="http://www.w3.org/2000/svg" width="15" height="15" viewBox="0 0 15 15">
    <path fill="#31B700" fill-rule="evenodd" d="M14.696 11.864l-2.322-2.322c-.462-.46-1.227-.446-1.706.032l-1.17 1.17-.23-.129c-.74-.408-1.75-.97-2.814-2.034-1.067-1.068-1.628-2.08-2.04-2.819-.043-.079-.084-.154-.125-.226l.785-.783.386-.387c.48-.48.493-1.245.032-1.707L3.17.337C2.708-.124 1.942-.11 1.462.369l-.654.659.018.017A3.811 3.811 0 0 0 .047 2.96c-.306 2.542.855 4.864 4.007 8.016 4.357 4.357 7.868 4.027 8.02 4.012.329-.04.645-.119.966-.243.346-.135.669-.318.948-.537l.015.012.663-.65c.478-.478.492-1.244.03-1.707"/>
</svg>
