<svg xmlns="http://www.w3.org/2000/svg" width="23" height="23" viewBox="0 0 23 23">
    <path fill="#FFF" fill-rule="evenodd" d="M11.764 20.014a8.249 8.249 0 0 1-5.37-1.98 1.584 1.584 0 0 1-.555-1.203 3.748 3.748 0 0 1 3.766-3.746h4.324a3.742 3.742 0 0 1 3.759 3.746c0 .463-.202.902-.555 1.203a8.244 8.244 0 0 1-5.37 1.98m.003-16.171a3.717 3.717 0 1 1 0 7.433 3.717 3.717 0 0 1 0-7.433m0-3.36C5.563.484.533 5.514.533 11.719c0 6.204 5.029 11.234 11.233 11.234C17.97 22.952 23 17.922 23 11.718S17.97.484 11.766.484"/>
</svg>
